<?xml version="1.0" encoding="utf-8"?>
<!-- Generator: Adobe Illustrator 14.0.0, SVG Export Plug-In . SVG Version: 6.00 Build 43363)  -->
<!DOCTYPE svg PUBLIC "-//W3C//DTD SVG 1.1//EN" "http://www.w3.org/Graphics/SVG/1.1/DTD/svg11.dtd">
<svg version="1.1" id="Isolation_Mode" xmlns="http://www.w3.org/2000/svg" xmlns:xlink="http://www.w3.org/1999/xlink" x="0px"
	 y="0px" width="145.424px" height="170.416px" viewBox="0 0 145.424 170.416" enable-background="new 0 0 145.424 170.416"
	 xml:space="preserve">
<path fill="#B9BAB1" d="M127.467,170.416c-0.045,0-0.089-0.002-0.134-0.006c-0.825-0.073-1.436-0.801-1.362-1.626l11.957-135.296
	c0.073-0.826,0.816-1.434,1.626-1.362c0.825,0.073,1.436,0.801,1.362,1.626l-11.957,135.296
	C128.89,169.828,128.236,170.416,127.467,170.416"/>
<path fill="#6AA3A2" d="M144.667,23.709c-4.742-6.503-34.608-4.196-41.479-3.279c-5.26,0.7-12.627,2.162-17.559,3.694
	c-9.72,3.011-14.47,2.19-14.47,2.19l-0.061-0.011c0,0-4.771-0.686-13.081-6.55c-4.224-2.979-10.777-6.645-15.562-8.936
	C36.203,7.824,8.509-3.591,1.99,1.129c-5.588,4.044,2.166,23.864,4.079,28.025c5.284,11.502,13.609,20.578,29.673,23.316
	c11.92,2.031,22.468-5.933,26.271-15.437c0.664-1.663,2.734-4.43,5.808-4.017l1.71,0.229c2.504,0.338,4.117,3.859,4.237,5.648
	c0.677,10.216,10.978,21.479,22.943,23.224c16.125,2.355,26.845-3.706,35.422-13.012C135.24,45.737,148.733,29.28,144.667,23.709
	 M36.198,50.353c-11.009-1.741-19.318-7.012-24.636-17.48c-2.844-5.597-4.601-17.813,0.397-22.5
	c6.586-6.171,24.729,1.286,30.66,3.759c10.224,4.258,19.363,10.237,17.793,20.152C58.843,44.196,47.549,52.148,36.198,50.353
	 M125.763,50.945c-8.292,8.315-17.822,10.761-28.831,9.019C85.58,58.167,75.251,46.778,76.823,36.865
	c1.567-9.915,14.146-12.443,25.184-13.337c6.408-0.521,25.966-2.011,30.325,5.895C135.636,35.422,130.197,46.5,125.763,50.945"/>
</svg>
